<svg width="111" height="26" viewBox="0 0 111 26" fill="none" xmlns="http://www.w3.org/2000/svg">
        <path fill-rule="evenodd" clip-rule="evenodd" d="M27.5546 0H13.6453L17.9858 12.9944L9.58984 25.9741H23.4991L31.8987 12.9833L27.5546 0Z" fill="#0C233C" />
        <path fill-rule="evenodd" clip-rule="evenodd" d="M36.2032 0H30.7703L35.1108 12.9944L26.7148 25.9741H32.1477L40.5474 12.9833L36.2032 0Z" fill="#76D2FF" />
        <path fill-rule="evenodd" clip-rule="evenodd" d="M8.39597 0H11.1179L2.72193 12.9944L7.06606 25.9741H4.34048L0 12.9833L8.39597 0Z" fill="#0C233C" />
        <path d="M54.7161 16.0892L52.2536 18.7244L51.0734 25.6367H46.2324L50.4816 0.722656H55.3226L53.4994 11.3154L55.4578 8.68018L61.1281 0.722656H67.3173L58.4281 11.8973L62.9148 25.6404H57.3978L54.7161 16.0929V16.0892Z" fill="#0C233C" />
        <path d="M73.8134 16.5339H71.3508L69.798 25.6367H64.957L69.2062 0.722656L76.6303 0.741188C78.8224 0.811608 80.5031 1.49358 81.6722 2.7945C82.8414 4.09543 83.3383 5.87077 83.1556 8.11681C82.8743 11.5266 81.3434 13.9024 78.5667 15.2367L81.0292 25.3661V25.6404H75.8338L73.8097 16.5376L73.8134 16.5339ZM72.0596 12.342L74.6062 12.3754C75.7753 12.3532 76.6997 11.8825 77.372 10.9633C78.0479 10.0441 78.3767 8.82843 78.3657 7.30883C78.3219 5.81517 77.6752 5.02201 76.4257 4.92936L73.3384 4.91082L72.056 12.3383L72.0596 12.342Z" fill="#0C233C" />
        <path d="M88.7082 25.6404H83.8672L88.1346 0.722656H92.9756L88.7082 25.6367V25.6404Z" fill="#0C233C" />
        <path d="M104.211 18.9649C104.325 18.1199 104.204 17.4157 103.85 16.8523C103.495 16.289 102.757 15.733 101.639 15.1919C100.521 14.6507 99.5823 14.0874 98.8296 13.5055C96.7727 11.9192 95.8264 9.91775 95.9944 7.4975C96.0967 6.10392 96.5242 4.866 97.2842 3.77634C98.0441 2.68667 99.0562 1.84162 100.328 1.23378C101.599 0.629649 102.958 0.344261 104.409 0.377618C106.513 0.422094 108.157 1.16336 109.341 2.59401C110.528 4.02466 111.077 5.8593 110.985 8.09423L106.159 8.07569C106.283 5.73699 105.545 4.55096 103.948 4.5176C103.126 4.49537 102.421 4.76593 101.833 5.32929C101.241 5.89266 100.887 6.62281 100.762 7.51233C100.594 8.84661 101.504 9.98817 103.495 10.9333C105.486 11.8821 106.915 12.9458 107.781 14.1319C108.749 15.4439 109.158 17.0413 109.012 18.9242C108.844 21.0924 108 22.8232 106.48 24.1167C104.96 25.4103 103.068 26.0366 100.795 25.9922C98.5118 25.9477 96.7069 25.1582 95.3806 23.6312C94.0544 22.1042 93.4479 20.1473 93.5575 17.7604L98.4168 17.7789C98.3254 19.2503 98.5154 20.3029 98.9831 20.9367C99.4508 21.5705 100.185 21.8855 101.186 21.8855C102.063 21.8744 102.754 21.5964 103.261 21.0553C103.766 20.5142 104.084 19.8137 104.208 18.9575L104.211 18.9649Z" fill="#0C233C" />
    </svg>